PathFileType	4	(X/Y/Z)	C:/Users/beibeiliu/ov580/test_trc\sequence.33_training_dense_right.trc
DataRate	CameraRate	NumFrames	NumMarkers	Units	OrigDataRate	OrigDataStartFrame	OrigNumFrames
120	120	23	19	mm	120	141	169
Frame#	Time	ThumbCMC			ThumbMCP			ThumbIP			ThumbTip			IndexMCP			IndexPIP			IndexTip			MiddleMCP			MiddlePIP			MiddleTip			RingMCP			RingPIP			RingTip			PinkyMCP			PinkyPIP			PinkyTip			BackHand1			BackHand2			BackHand3	
		X0	Y0	Z0	X1	Y1	Z1	X2	Y2	Z2	X3	Y3	Z3	X4	Y4	Z4	X5	Y5	Z5	X6	Y6	Z6	X7	Y7	Z7	X8	Y8	Z8	X9	Y9	Z9	X10	Y10	Z10	X11	Y11	Z11	X12	Y12	Z12	X13	Y13	Z13	X14	Y14	Z14	X15	Y15	Z15	X16	Y16	Z16	X17	Y17	Z17	X18	Y18	Z18	
140	1.16667	19.5216	67.8803	85.7336	-0.996647	70.0206	66.5894	-9.33212	74.908	48.3096	-16.0234	81.4458	28.2865	24.2812	92.4614	26.5411	19.7877	71.57	3.40552	12.4192	45.6278	5.2035	49.3794	97.9341	23.158	46.5927	99.6372	-6.27353	49.354	93.5263	-30.8809	70.1091	87.9064	23.5847	63.74	87.0996	-1.67538	55.5455	70.1747	-22.5091	84.3991	74.6198	39.7372	90.4328	83.0663	26.689	103.168	97.9799	14.3959	70.7725	75.9612	71.1762	68.3762	70.1816	92.9275	42.2457	84.6205	85.3145	
141	1.175	17.68	63.8933	88.5054	3.58446	67.5746	62.8392	-8.86041	74.3777	44.6672	-12.0302	76.033	26.3751	24.7433	87.3135	21.8133	24.4662	66.0661	5.27351	21.741	39.3688	14.7482	53.3505	93.9541	21.5473	46.8415	96.4057	-5.1387	48.7403	91.5679	-29.9242	69.0328	90.7713	25.1556	73.0636	93.2296	0.902017	68.4185	92.1227	-18.7023	89.4117	73.0815	41.7569	97.3242	84.4084	26.2296	107.714	93.6216	19.2777	68.0551	79.0716	70.1643	72.2059	69.2489	96.1422	47.8961	82.124	83.9978	
142	1.18333	18.397	63.2973	83.3194	1.49454	62.8883	63.9845	-7.09294	69.2293	42.4511	-11.5095	69.7977	25.9461	29.1115	81.1887	21.1303	24.4224	58.3388	7.08799	23.5005	32.3709	19.8039	52.2862	92.106	17.9448	51.7913	91.6001	-4.5527	50.2604	87.6651	-34.7995	73.1873	90.8089	25.4388	73.8321	96.8162	9.20379	77.9507	103.559	-16.6938	90.1633	75.3934	41.7239	95.7854	84.8797	30.5114	110.71	96.9936	25.5149	68.3724	75.3258	72.6305	73.2686	71.5185	92.694	43.8871	82.9372	83.518	
143	1.19167	21.7021	61.4514	82.0327	4.00918	59.0365	63.8018	-7.56905	64.9593	41.1125	-13.5809	68.5223	22.1184	27.8535	78.921	22.2709	24.5928	52.4008	5.47854	28.6649	28.1837	17.7524	52.1641	89.6361	19.0773	51.8296	90.0548	-5.9116	49.7145	87.7575	-34.6078	72.1042	86.6583	29.7101	79.541	97.5879	5.71465	80.3561	105.868	-9.98614	89.4281	73.0134	43.8754	98.0761	82.6064	31.978	105.47	100.101	25.5109	67.8188	79.4686	68.332	69.1276	68.3446	96.5782	44.5551	79.1325	80.8038	
144	1.2	22.0806	58.9364	86.3825	3.79504	58.1652	62.5551	-4.31839	63.0787	42.0901	-14.5517	64.743	24.787	27.7322	80.5674	18.3775	27.8927	58.6087	-0.585514	23.513	33.274	3.32045	49.7415	88.8003	19.665	50.924	89.2708	-8.24961	50.5698	88.3505	-32.4104	73.9794	87.5207	26.0836	79.3563	93.3441	9.53171	84.4917	105.312	-11.0443	92.3127	73.6693	43.1966	100.266	86.3695	30.0676	105.871	96.3287	26.2392	69.1317	76.9334	66.454	69.3831	69.9707	96.9161	45.5775	82.5958	80.5279	
145	1.20833	23.0431	60.5925	83.8777	7.04683	59.985	59.2223	-5.23676	62.0657	41.3814	-13.6732	64.7588	23.2831	31.5751	85.0953	18.4534	26.0635	74.6333	-3.52713	21.5644	49.5203	-15.7329	54.2723	88.935	19.0176	52.9035	88.8711	-7.70894	53.8688	83.1418	-33.7896	75.7448	85.5317	25.9794	81.6285	92.6108	5.56539	87.9833	98.6218	-13.4998	91.8298	71.9191	42.4278	101.159	80.4526	31.3271	114.664	91.4401	28.2771	74.4739	74.7048	69.8438	71.7348	69.8067	94.6994	49.8501	81.4763	81.0285	
146	1.21667	23.4425	61.3463	80.7243	9.90534	56.9282	61.1963	-2.59523	61.6008	39.3656	-10.8558	60.7887	23.8433	31.1926	88.5661	19.1141	27.6237	84.6668	-0.78699	26.9337	70.1913	-26.6711	55.0977	82.9164	17.1197	53.5627	78.0736	-10.8556	51.0438	62.5852	-36.473	78.0815	78.8216	26.3341	83.444	85.3795	3.22541	87.9364	90.693	-14.6893	96.6768	69.6021	41.1011	104.993	77.9629	30.2386	115.029	90.5449	24.2563	72.1439	76.2064	67.8405	73.2867	66.7577	92.7997	49.303	77.5626	82.1693	
147	1.225	22.0217	58.3557	82.2377	9.32071	53.5967	61.3498	-0.765405	57.1806	40.9062	-8.52519	58.3013	22.5917	36.9456	85.0544	22.8486	33.5535	86.5004	-0.783095	30.0078	83.2144	-25.9427	57.9003	76.8092	13.9226	51.029	65.9827	-13.0958	43.9546	43.3462	-29.4005	76.8146	75.2712	24.8613	82.8207	79.2972	4.37227	86.6509	84.1076	-16.2003	91.8057	64.797	42.4356	104.246	71.403	31.9088	115.47	83.6707	28.9871	72.798	71.1165	70.4537	71.6047	65.236	92.052	50.8807	74.3648	82.7521	
148	1.23333	24.272	56.6246	83.1418	7.53403	53.3682	59.777	-2.533	57.3487	38.3534	-10.1274	56.4148	22.4161	36.0324	85.7606	21.5249	36.07	86.6929	-2.35969	31.6257	89.6628	-24.1323	55.4972	73.7152	14.0496	53.3601	61.4083	-9.08375	45.7304	31.3441	-20.886	76.515	74.9956	23.0158	83.3885	77.3503	4.29512	83.4808	80.6859	-17.5058	96.0202	65.2561	41.578	108.038	70.9563	32.2836	117.661	84.5247	25.608	74.5984	68.7357	68.1178	72.2119	63.9877	94.692	52.0508	75.0973	83.2175	
149	1.24167	22.4043	57.0605	84.6754	10.8344	53.3736	63.6939	-2.59769	58.2	39.6123	-5.05746	57.8906	20.3369	41.7951	85.5296	24.2212	40.9538	86.8688	2.99701	40.929	90.582	-18.5574	56.5562	73.5532	17.272	51.4498	57.4357	-7.11203	44.1964	26.2503	-13.0796	76.7721	74.2728	24.4217	81.8333	75.9821	4.54823	85.6439	79.3118	-21.0631	96.6028	64.4945	40.7897	107.23	71.0951	32.3084	118.387	83.5739	26.7443	74.6902	69.4536	70.8452	75.7606	63.3743	95.2061	49.2726	75.9957	82.0483	
150	1.25	25.267	58.8672	85.7207	11.291	57.8021	60.382	1.65242	60.4141	41.4618	-6.71135	62.9056	20.5191	41.3101	87.9271	25.3279	40.5367	90.7938	3.76083	40.9568	92.6212	-23.6331	59.015	71.9289	15.0569	51.6485	51.6219	-6.20015	41.0487	22.353	-3.00741	79.5294	72.8689	25.4269	83.2815	76.4909	-0.365097	82.6987	77.1819	-18.2753	94.771	63.3362	41.7563	105.173	68.332	33.4506	119.46	80.873	28.459	76.1056	71.0739	69.1646	75.3532	64.3609	93.6114	52.993	76.5541	81.5869	
151	1.25833	26.1027	62.0847	83.2592	10.4861	58.9482	61.998	5.47337	64.3525	38.8337	-2.11301	64.2717	19.7724	42.0383	88.6237	25.1098	45.6064	88.612	2.84747	45.3898	90.1997	-24.3562	60.6017	71.9919	17.2665	50.8068	52.3379	-4.49501	37.6803	25.1837	1.28289	84.2116	72.7904	19.8928	85.1636	74.3233	-1.75498	84.3149	72.7105	-19.2976	100	61.1703	43.0296	108.764	69.6622	31.0927	122.262	80.2489	25.2305	77.2877	70.2603	69.3008	80.5745	61.2093	96.3748	54.5185	76.5781	81.8118	
152	1.26667	31.4787	60.3072	83.283	13.4245	58.899	62.6084	2.0845	64.9701	37.1203	-2.54405	65.6173	19.7063	46.3286	87.4533	23.7194	45.0168	89.1243	0.0307068	44.9261	88.6363	-23.3256	61.2825	71.8851	11.2619	49.9682	52.3365	-5.08075	43.2019	22.8194	1.77798	83.6937	73.4074	22.667	82.8423	76.0059	1.6674	83.0521	75.5815	-20.3206	98.454	63.6676	40.0241	113.272	71.1323	28.8941	120.649	81.2607	24.6209	83.9856	70.487	69.078	77.2649	62.3212	95.2183	54.776	76.254	82.8189	
153	1.275	32.5333	61.5221	84.9144	15.2321	61.1411	61.0421	5.17948	66.3101	36.7044	-1.87812	64.4172	19.2542	43.4705	90.8316	19.9248	45.1836	90.6179	-2.31684	45.9263	88.3846	-24.5205	61.698	78.3838	15.1355	55.3937	55.994	-9.53901	43.1151	28.0302	-6.77751	83.9533	79.3949	18.6482	86.0587	79.8863	-2.49665	88.2352	80.4775	-22.8251	101.603	68.0977	38.0616	112.52	75.4565	26.1892	121.37	89.3871	20.0228	84.2696	73.7046	65.945	82.9523	68.8315	90.1612	58.7209	78.0192	81.338	
154	1.28333	36.065	62.1302	82.0317	18.1142	61.0694	58.8585	8.61763	63.0602	36.9495	0.416379	63.3554	17.1446	46.4714	90.7759	15.8699	43.218	90.3163	-7.1373	43.8866	83.4697	-28.9112	65.3707	83.6923	11.5979	61.2643	71.4967	-13.1041	51.2104	42.1347	-24.3466	87.1325	81.443	21.0486	91.831	83.7211	-0.128295	89.6864	89.3006	-21.0192	104.258	70.1995	37.5461	112.359	77.7246	26.667	122.175	90.5552	22.8226	82.7968	75.0322	65.7519	86.4962	69.4531	89.9256	58.2112	82.846	78.6538	
155	1.29167	38.5383	61.6439	80.4501	19.5939	58.2966	57.155	8.72286	59.3073	34.6229	5.24187	57.6699	16.0866	44.4289	86.508	13.3416	41.533	78.5604	-10.7882	36.7038	69.9994	-27.4358	64.8277	89.7948	8.95349	67.6375	83.5515	-18.3184	62.9417	67.2324	-41.4241	91.1024	83.2968	21.2271	95.3504	91.1196	-0.704129	96.9469	98.242	-21.0266	105.387	74.3426	37.6932	116.308	83.8889	24.831	123.723	98.3257	20.178	87.1573	80.5282	60.6952	86.8686	73.1513	87.4554	60.2932	81.9547	76.2173	
156	1.3	36.9073	62.1655	77.4049	23.4794	54.569	57.6045	13.2638	54.4954	35.5441	4.40313	53.3418	18.248	41.0176	81.0127	12.0005	38.2288	68.9473	-11.6756	36.652	53.6647	-25.5338	69.8876	89.9712	9.07324	66.9224	91.4473	-11.8641	72.855	88.5166	-42.3509	89.7338	89.4599	18.1644	94.8953	96.8053	-0.705593	99.2218	105.723	-16.7999	107.504	76.08	36.8558	113.85	85.756	24.5885	125.984	101.408	21.6951	85.6233	81.261	59.0999	84.4639	75.4356	86.8216	61.146	85.3531	73.902	
157	1.30833	35.7361	60.9849	79.3047	21.8868	57.4024	52.2733	12.047	56.8783	31.5378	6.56216	54.8597	13.7127	43.8661	80.427	14.6891	36.9249	66.3033	-8.32531	37.8732	44.6561	-24.0222	68.2051	92.8901	8.40454	71.5271	95.3278	-13.795	75.3413	100.687	-37.4471	93.5758	88.0125	22.4713	95.505	98.2515	6.13543	103.55	109.707	-8.83165	108.151	77.2105	38.4812	114.245	86.3846	26.8341	124.463	98.6143	24.4719	85.6977	80.9532	64.9949	83.6113	78.4334	89.1691	57.4184	84.4261	73.815	
158	1.31667	37.5924	62.3805	74.641	22.2945	55.2043	56.3048	15.0761	55.4074	32.4585	5.31038	53.9331	12.9927	45.6208	80.3441	12.0369	39.5729	66.4584	-6.14335	43.2718	43.3341	-21.6274	71.8818	92.6987	12.9938	72.2934	97.4253	-8.80173	76.9238	104.349	-32.3313	92.4648	89.7214	24.205	95.7357	98.9774	7.71445	100.403	114.925	-9.42757	109.582	77.5879	40.0852	116.116	88.8944	27.1976	127.704	98.7855	27.0797	87.3562	82.3026	60.8296	83.9929	76.2881	86.5213	58.1784	84.0316	73.5144	
159	1.325	38.4836	60.0575	79.4012	28.6788	54.6799	54.294	18.98	53.5573	35.8132	9.81394	52.7273	12.2233	45.8415	77.8869	12.9208	44.4578	64.4947	-4.90807	43.1945	38.0898	-17.5233	72.1889	90.7267	15.2466	74.9805	96.0276	-12.5092	76.9012	101.32	-30.0776	91.4192	86.9401	24.3246	97.9549	98.1429	4.81429	103.599	107.213	-10.4113	107.079	75.5965	39.734	119.444	86.0962	29.7621	126.067	100.283	24.1804	90.7005	78.5807	65.6748	90.8342	74.4935	87.11	65.6622	84.2286	73.4588	
160	1.33333	42.9608	59.8861	76.0211	24.2462	52.058	56.3074	14.8082	52.1098	35.4929	8.96946	51.1136	13.7747	45.814	76.044	14.6694	45.5107	59.765	-3.96114	46.511	30.3751	-13.4016	70.3909	89.3541	11.1624	70.805	92.8048	-11.8202	76.0401	96.7302	-30.7479	92.903	85.7682	19.5383	95.8499	90.9266	-0.00239948	101.5	95.6868	-21.2614	110.836	74.653	38.8976	115.895	82.2718	28.311	126.951	94.4736	25.0356	88.8968	77.8402	67.1328	91.2665	74.1554	87.2131	61.8764	81.4315	76.4286	
161	1.34167	39.1449	58.1796	80.1863	23.6055	52.0949	55.214	15.0094	53.0945	32.1117	9.37046	49.9749	17.8278	45.2384	75.1875	15.7911	45.8448	55.4089	-3.34504	45.6035	25.0872	-5.66045	67.5081	87.0663	10.9836	72.7214	87.1296	-8.38877	69.8312	92.6758	-32.2831	90.9924	79.4196	18.5551	93.6226	81.1051	-4.86679	94.9597	79.7199	-23.4066	107.916	73.5002	36.7583	117.453	79.7329	28.1995	126.334	92.9792	23.4201	84.9737	78.9342	63.8809	87.1707	73.5282	92.4456	60.4805	82.1149	78.2609	
162	1.35	37.8827	59.3445	78.8601	21.2504	52.1583	56.8887	14.9948	52.4045	36.1681	9.30816	49.7755	18.1903	45.4899	73.9516	17.7243	45.2001	53.5949	-1.71583	41.3136	26.9077	-0.700511	67.5227	84.9651	10.9078	66.4629	85.9393	-9.71388	67.3587	88.887	-36.8523	85.7221	77.5448	16.0273	86.8147	76.6485	-5.39299	86.6295	69.8826	-29.2434	107.592	71.5139	39.4894	113.178	81.0092	24.8155	122.514	94.2154	15.9664	87.7698	78.1208	62.5094	88.1471	74.3195	90.5172	57.4215	81.1234	74.3799	
